<?xml version="1.0" standalone="no"?>
<!DOCTYPE svg PUBLIC "-//W3C//DTD SVG 20010904//EN"
 "http://www.w3.org/TR/2001/REC-SVG-20010904/DTD/svg10.dtd">
<svg version="1.0" xmlns="http://www.w3.org/2000/svg"
 width="128.000000pt" height="128.000000pt" viewBox="0 0 128.000000 128.000000"
 preserveAspectRatio="xMidYMid meet">
<metadata>
Created by potrace 1.11, written by Peter Selinger 2001-2013
</metadata>
<g transform="translate(0.000000,128.000000) scale(0.100000,-0.100000)"
fill="#000000" stroke="none">
<path d="M396 1128 c-14 -24 -41 -80 -62 -125 l-36 -82 -35 19 c-19 10 -41 16
-48 14 -14 -6 -25 -49 -25 -100 0 -31 -3 -34 -22 -29 -13 3 -30 1 -38 -4 -12
-8 -10 -19 14 -69 21 -45 29 -76 30 -129 l3 -69 -37 -27 c-36 -25 -37 -29 -44
-102 -6 -68 -5 -80 17 -118 17 -32 28 -41 45 -40 14 2 22 -3 22 -12 0 -23 18
-27 48 -10 27 16 30 16 66 -9 102 -69 284 -105 418 -83 44 8 46 7 41 -13 -7
-27 19 -27 64 1 l34 21 -7 -26 c-5 -23 -3 -26 17 -26 13 1 44 11 68 23 39 19
50 33 89 111 l44 88 -22 31 c-20 26 -21 33 -9 51 48 75 99 173 96 186 -2 10
-12 14 -31 12 l-28 -3 23 38 c13 21 40 65 61 97 21 33 38 68 38 79 0 18 -5 19
-55 13 -32 -3 -55 -2 -55 3 0 5 18 47 40 92 22 46 40 91 40 101 0 30 -42 22
-170 -31 l-118 -49 -63 32 c-57 28 -74 31 -174 35 l-111 3 -23 57 c-25 61 -47
91 -67 91 -7 0 -24 -19 -38 -42z"/>
</g>
</svg>
